<svg width="64" height="64" viewBox="0 0 64 64" fill="none" xmlns="http://www.w3.org/2000/svg">
<path d="M24.0974 21.2687C23.3164 20.4876 22.05 20.4876 21.269 21.2687C20.4879 22.0497 20.4879 23.3161 21.269 24.0971L29.1714 31.9996L21.269 39.902C20.4879 40.6831 20.4879 41.9494 21.269 42.7304C22.05 43.5115 23.3164 43.5115 24.0974 42.7304L31.9999 34.828L39.9023 42.7304C40.6834 43.5115 41.9497 43.5115 42.7307 42.7304C43.5118 41.9494 43.5118 40.6831 42.7307 39.902L34.8283 31.9996L42.7307 24.0971C43.5118 23.3161 43.5118 22.0497 42.7307 21.2687C41.9497 20.4876 40.6834 20.4876 39.9023 21.2687L31.9999 29.1711L24.0974 21.2687Z" fill="#EE3D3D"/>
<path fill-rule="evenodd" clip-rule="evenodd" d="M32.0001 2.66663C15.7997 2.66663 2.66675 15.7996 2.66675 32C2.66675 48.2003 15.7997 61.3333 32.0001 61.3333C48.2004 61.3333 61.3334 48.2003 61.3334 32C61.3334 15.7996 48.2004 2.66663 32.0001 2.66663ZM6.66675 32C6.66675 18.0087 18.0089 6.66663 32.0001 6.66663C45.9913 6.66663 57.3334 18.0087 57.3334 32C57.3334 45.9912 45.9913 57.3333 32.0001 57.3333C18.0089 57.3333 6.66675 45.9912 6.66675 32Z" fill="#EE3D3D"/>
</svg>
