<svg width="64" height="64" viewBox="0 0 64 64" fill="none" xmlns="http://www.w3.org/2000/svg">
<path d="M34.6667 20C34.6667 21.4727 33.4728 22.6666 32.0001 22.6666C30.5273 22.6666 29.3334 21.4727 29.3334 20C29.3334 18.5272 30.5273 17.3333 32.0001 17.3333C33.4728 17.3333 34.6667 18.5272 34.6667 20Z" fill="#39825B"/>
<path d="M26.6667 30C26.6667 28.8954 27.5622 28 28.6667 28H32.6667C33.7713 28 34.6667 28.8954 34.6667 30V41.3333H36.6667C37.7713 41.3333 38.6667 42.2287 38.6667 43.3333C38.6667 44.4379 37.7713 45.3333 36.6667 45.3333H28.6667C27.5622 45.3333 26.6667 44.4379 26.6667 43.3333C26.6667 42.2287 27.5622 41.3333 28.6667 41.3333H30.6667V32H28.6667C27.5622 32 26.6667 31.1045 26.6667 30Z" fill="#39825B"/>
<path fill-rule="evenodd" clip-rule="evenodd" d="M32.0001 2.66663C15.7997 2.66663 2.66675 15.7996 2.66675 32C2.66675 48.2003 15.7997 61.3333 32.0001 61.3333C48.2004 61.3333 61.3334 48.2003 61.3334 32C61.3334 15.7996 48.2004 2.66663 32.0001 2.66663ZM6.66675 32C6.66675 18.0087 18.0089 6.66663 32.0001 6.66663C45.9913 6.66663 57.3334 18.0087 57.3334 32C57.3334 45.9912 45.9913 57.3333 32.0001 57.3333C18.0089 57.3333 6.66675 45.9912 6.66675 32Z" fill="#39825B"/>
<path d="M34.6667 20C34.6667 21.4727 33.4728 22.6666 32.0001 22.6666C30.5273 22.6666 29.3334 21.4727 29.3334 20C29.3334 18.5272 30.5273 17.3333 32.0001 17.3333C33.4728 17.3333 34.6667 18.5272 34.6667 20Z" stroke="#4BC282"/>
<path d="M26.6667 30C26.6667 28.8954 27.5622 28 28.6667 28H32.6667C33.7713 28 34.6667 28.8954 34.6667 30V41.3333H36.6667C37.7713 41.3333 38.6667 42.2287 38.6667 43.3333C38.6667 44.4379 37.7713 45.3333 36.6667 45.3333H28.6667C27.5622 45.3333 26.6667 44.4379 26.6667 43.3333C26.6667 42.2287 27.5622 41.3333 28.6667 41.3333H30.6667V32H28.6667C27.5622 32 26.6667 31.1045 26.6667 30Z" stroke="#4BC282"/>
<path fill-rule="evenodd" clip-rule="evenodd" d="M32.0001 2.66663C15.7997 2.66663 2.66675 15.7996 2.66675 32C2.66675 48.2003 15.7997 61.3333 32.0001 61.3333C48.2004 61.3333 61.3334 48.2003 61.3334 32C61.3334 15.7996 48.2004 2.66663 32.0001 2.66663ZM6.66675 32C6.66675 18.0087 18.0089 6.66663 32.0001 6.66663C45.9913 6.66663 57.3334 18.0087 57.3334 32C57.3334 45.9912 45.9913 57.3333 32.0001 57.3333C18.0089 57.3333 6.66675 45.9912 6.66675 32Z" stroke="#4BC282"/>
</svg>
