<svg width="32" height="32" viewBox="0 0 32 32" fill="none" xmlns="http://www.w3.org/2000/svg">
<path fill-rule="evenodd" clip-rule="evenodd" d="M2.33333 1.33331C1.04467 1.33331 0 2.37798 0 3.66665V16.3333C0 17.622 1.04467 18.6666 2.33333 18.6666H4V20.7238C4 21.7968 4.86982 22.6666 5.94281 22.6666C6.45807 22.6666 6.95224 22.462 7.31658 22.0976L10.7475 18.6666H19C20.2887 18.6666 21.3333 17.622 21.3333 16.3333V3.66665C21.3333 2.37798 20.2887 1.33331 19 1.33331H2.33333ZM2 3.66665C2 3.48255 2.14924 3.33331 2.33333 3.33331H19C19.1841 3.33331 19.3333 3.48255 19.3333 3.66665V16.3333C19.3333 16.5174 19.1841 16.6666 19 16.6666H10.3333C10.0681 16.6666 9.81376 16.772 9.62623 16.9595L6 20.5858V17.6666C6 17.1144 5.55229 16.6666 5 16.6666H2.33333C2.14924 16.6666 2 16.5174 2 16.3333V3.66665Z" fill="#303030"/>
<path d="M30 11.6666C30 11.4826 29.8508 11.3333 29.6667 11.3333H25C24.4477 11.3333 24 10.8856 24 10.3333C24 9.78103 24.4477 9.33331 25 9.33331H29.6667C30.9553 9.33331 32 10.378 32 11.6666V24.3333C32 25.622 30.9553 26.6666 29.6667 26.6666H28V28.7238C28 29.7968 27.1302 30.6666 26.0572 30.6666C25.5419 30.6666 25.0478 30.462 24.6834 30.0976L21.2525 26.6666H14.3333C13.0447 26.6666 12 25.622 12 24.3333V22.3807C12 21.8284 12.4477 21.3807 13 21.3807C13.5523 21.3807 14 21.8284 14 22.3807V24.3333C14 24.5174 14.1492 24.6666 14.3333 24.6666H21.6667C21.9319 24.6666 22.1862 24.772 22.3738 24.9595L26 28.5858V25.6666C26 25.1144 26.4477 24.6666 27 24.6666H29.6667C29.8508 24.6666 30 24.5174 30 24.3333V11.6666Z" fill="#303030"/>
</svg>
