<svg width="32" height="32" viewBox="0 0 32 32" fill="none" xmlns="http://www.w3.org/2000/svg">
<path d="M12.0487 10.6343C11.6582 10.2438 11.025 10.2438 10.6345 10.6343C10.244 11.0249 10.244 11.658 10.6345 12.0486L14.5857 15.9998L10.6345 19.951C10.244 20.3415 10.244 20.9747 10.6345 21.3652C11.025 21.7557 11.6582 21.7557 12.0487 21.3652L15.9999 17.414L19.9512 21.3652C20.3417 21.7557 20.9748 21.7557 21.3654 21.3652C21.7559 20.9747 21.7559 20.3415 21.3654 19.951L17.4141 15.9998L21.3654 12.0486C21.7559 11.658 21.7559 11.0249 21.3654 10.6343C20.9748 10.2438 20.3417 10.2438 19.9512 10.6343L15.9999 14.5856L12.0487 10.6343Z" fill="#EE3D3D"/>
<path fill-rule="evenodd" clip-rule="evenodd" d="M16 1.33331C7.89986 1.33331 1.33337 7.8998 1.33337 16C1.33337 24.1002 7.89986 30.6666 16 30.6666C24.1002 30.6666 30.6667 24.1002 30.6667 16C30.6667 7.8998 24.1002 1.33331 16 1.33331ZM3.33337 16C3.33337 9.00437 9.00443 3.33331 16 3.33331C22.9956 3.33331 28.6667 9.00437 28.6667 16C28.6667 22.9956 22.9956 28.6666 16 28.6666C9.00443 28.6666 3.33337 22.9956 3.33337 16Z" fill="#EE3D3D"/>
</svg>
