<svg width="32" height="32" viewBox="0 0 32 32" fill="none" xmlns="http://www.w3.org/2000/svg">
<path d="M20.6667 3C20.6667 2.44772 21.1144 2 21.6667 2H29C29.5523 2 30 2.44772 30 3V10.3333C30 10.8856 29.5523 11.3333 29 11.3333C28.4478 11.3333 28 10.8856 28 10.3333V5.41421L19.7071 13.7071C19.3166 14.0976 18.6835 14.0976 18.2929 13.7071C17.9024 13.3166 17.9024 12.6834 18.2929 12.2929L26.5858 4H21.6667C21.1144 4 20.6667 3.55228 20.6667 3Z" fill="#303030"/>
<path d="M3.33337 5.66667C3.33337 4.378 4.37804 3.33333 5.66671 3.33333H17C17.5523 3.33333 18 3.78105 18 4.33333C18 4.88562 17.5523 5.33333 17 5.33333H5.66671C5.48261 5.33333 5.33337 5.48257 5.33337 5.66667V26.3333C5.33337 26.5174 5.48261 26.6667 5.66671 26.6667H26.3334C26.5175 26.6667 26.6667 26.5174 26.6667 26.3333V15C26.6667 14.4477 27.1144 14 27.6667 14C28.219 14 28.6667 14.4477 28.6667 15V26.3333C28.6667 27.622 27.622 28.6667 26.3334 28.6667H5.66671C4.37804 28.6667 3.33337 27.622 3.33337 26.3333V5.66667Z" fill="#303030"/>
</svg>
