<svg width="32" height="32" viewBox="0 0 32 32" fill="none" xmlns="http://www.w3.org/2000/svg">
<path d="M20.6665 16C20.6665 18.5773 18.5772 20.6666 15.9998 20.6666C13.4225 20.6666 11.3332 18.5773 11.3332 16C11.3332 13.4227 13.4225 11.3333 15.9998 11.3333C18.5772 11.3333 20.6665 13.4227 20.6665 16Z" fill="#303030"/>
<path fill-rule="evenodd" clip-rule="evenodd" d="M16 4.66681C11.4241 4.66681 7.83401 6.71237 5.26121 8.98763C2.69371 11.2582 1.08587 13.8019 0.439459 14.9351C0.0598945 15.6006 0.0598932 16.3997 0.439459 17.0651C1.08587 18.1984 2.69371 20.7421 5.26121 23.0126C7.83401 25.2879 11.4241 27.3335 16 27.3335C20.5759 27.3335 24.166 25.2879 26.7388 23.0126C29.3063 20.742 30.9141 18.1983 31.5605 17.065C31.9401 16.3996 31.9401 15.6005 31.5605 14.935C30.9141 13.8018 29.3063 11.2582 26.7388 8.98759C24.166 6.71235 20.5759 4.66681 16 4.66681ZM2.17672 15.9261C2.76536 14.8941 4.24546 12.5558 6.58614 10.4858C8.92152 8.42051 12.0598 6.66681 16 6.66681C19.9402 6.66681 23.0785 8.42049 25.4139 10.4858C27.7545 12.5558 29.2346 14.894 29.8232 15.926C29.8407 15.9566 29.8452 15.9814 29.8452 16C29.8452 16.0187 29.8407 16.0435 29.8232 16.0741C29.2346 17.1061 27.7545 19.4444 25.4139 21.5144C23.0785 23.5798 19.9402 25.3335 16 25.3335C12.0598 25.3335 8.92152 23.5798 6.58614 21.5145C4.24545 19.4445 2.76536 17.1062 2.17672 16.0742C2.15923 16.0436 2.15479 16.0188 2.15479 16.0001C2.15479 15.9815 2.15923 15.9567 2.17672 15.9261Z" fill="#303030"/>
</svg>
