<svg width="32" height="32" viewBox="0 0 32 32" fill="none" xmlns="http://www.w3.org/2000/svg">
<path fill-rule="evenodd" clip-rule="evenodd" d="M11.6667 25.6667C11.6667 28.0599 13.6068 30 16 30C18.3933 30 20.3334 28.0599 20.3334 25.6667C20.3334 23.6176 18.9112 21.9007 17 21.4493V16.6667H20.3334C23.0948 16.6667 25.3334 14.4281 25.3334 11.6667V10.5507C27.2445 10.0993 28.6667 8.38239 28.6667 6.33333C28.6667 3.9401 26.7266 2 24.3334 2C21.9401 2 20 3.9401 20 6.33333C20 8.38239 21.4222 10.0993 23.3334 10.5507V11.6667C23.3334 13.3235 21.9902 14.6667 20.3334 14.6667H11.6667C10.0099 14.6667 8.66671 13.3235 8.66671 11.6667V10.5507C10.5778 10.0993 12 8.38239 12 6.33333C12 3.9401 10.0599 2 7.66671 2C5.27347 2 3.33337 3.9401 3.33337 6.33333C3.33337 8.38239 4.75557 10.0993 6.66671 10.5507V11.6667C6.66671 14.4281 8.90528 16.6667 11.6667 16.6667H15V21.4493C13.0889 21.9007 11.6667 23.6176 11.6667 25.6667ZM16 28C14.7114 28 13.6667 26.9553 13.6667 25.6667C13.6667 24.378 14.7114 23.3333 16 23.3333C17.2887 23.3333 18.3334 24.378 18.3334 25.6667C18.3334 26.9553 17.2887 28 16 28ZM7.66671 8.66667C6.37804 8.66667 5.33337 7.622 5.33337 6.33333C5.33337 5.04467 6.37804 4 7.66671 4C8.95537 4 10 5.04467 10 6.33333C10 7.622 8.95537 8.66667 7.66671 8.66667ZM22 6.33333C22 7.622 23.0447 8.66667 24.3334 8.66667C25.622 8.66667 26.6667 7.622 26.6667 6.33333C26.6667 5.04467 25.622 4 24.3334 4C23.0447 4 22 5.04467 22 6.33333Z" fill="#303030"/>
</svg>
