<svg width="32" height="32" viewBox="0 0 32 32" fill="none" xmlns="http://www.w3.org/2000/svg">
<path fill-rule="evenodd" clip-rule="evenodd" d="M4 3.66667C4 1.64162 5.64162 0 7.66667 0H27C27.5523 0 28 0.447715 28 1V28.3333C28 28.8856 27.5523 29.3333 27 29.3333H19C18.4477 29.3333 18 28.8856 18 28.3333C18 27.781 18.4477 27.3333 19 27.3333H26V22H8C6.89543 22 6 22.8954 6 24V25C6 25.9553 6.57419 26.7786 7.40037 27.1396C7.90646 27.3607 8.13747 27.9503 7.91635 28.4563C7.69523 28.9624 7.10572 29.1934 6.59963 28.9723C5.07127 28.3046 4 26.7785 4 25V3.66667ZM26 2V20H8C7.27143 20 6.58835 20.1948 6 20.5351V3.66667C6 2.74619 6.74619 2 7.66667 2H26Z" fill="#303030"/>
<path d="M9.33333 24.3333C9.33333 24.1492 9.48257 24 9.66667 24H16.3333C16.5174 24 16.6667 24.1492 16.6667 24.3333V31.0121C16.6667 31.2845 16.3576 31.4419 16.1373 31.2817L13.1961 29.1426C13.0792 29.0576 12.9208 29.0576 12.8039 29.1426L9.86272 31.2817C9.6424 31.4419 9.33333 31.2845 9.33333 31.0121V24.3333Z" fill="#303030"/>
</svg>
